<?xml version="1.0" encoding="utf-8"?>
<!-- Generator: Adobe Illustrator 28.3.0, SVG Export Plug-In . SVG Version: 6.00 Build 0)  -->
<svg class="logo" version="1.1" xmlns="http://www.w3.org/2000/svg" xmlns:xlink="http://www.w3.org/1999/xlink" x="0px" y="0px"
	 viewBox="0 0 192 192" style="enable-background:new 0 0 192 192;" xml:space="preserve">
	<style type="text/css">
		.logo-st5{fill:#2272AF;}
	</style>
	<g>
		<path class="logo-st5" d="M97.6,165.8L97.6,165.8c-0.9,3.4-4.5,6.3-7.9,6.3H22.9c-6.3,0-10-5.3-8.4-11.7L48.2,26.2
			c0.9-3.4,4.5-6.3,7.9-6.3h13.5c3.4,0,5.6,2.8,4.8,6.3L43.8,147.8c-1.6,6.5,2.1,11.7,8.4,11.7H93C96.4,159.5,98.4,162.4,97.6,165.8z
			"/>
		<path class="logo-st5" d="M154.3,137.4l-0.7,2.8c-0.6,2.4-2,4.8-3.9,6.5c-0.2,0.2-0.4,0.3-0.6,0.5c-1.2,1-2.4,1.7-3.8,2.3c0,0,0,0-0.1,0
			c-3,1.1-6,0.3-7.4-1.8l-34.1-52.5c-0.8-1.2-3-0.4-3.4,1.2l-12.5,50c-0.6,2.2-2.8,4-5.1,4H56.7c-2.2,0-3.5-1.8-3-4l23.2-92.3
			l0.8-3.2c0.6-2.4,1.9-4.6,3.7-6.3c0.2-0.2,0.4-0.3,0.6-0.5c1.2-1,2.5-1.8,3.9-2.4c0,0,0,0,0.1,0c2.9-1.2,5.8-0.4,7.2,1.7l42.5,65.5
			c0.8,1.2,3,0.4,3.4-1.2L155,44.8c0.6-2.2,2.8-4,5.1-4h14.6c2.2,0,3.5,1.8,3,4L154.3,137.4z"/>
	</g>
</svg>
