<?xml version="1.0" encoding="UTF-8"?>
<svg id="Layer_1" xmlns="http://www.w3.org/2000/svg" version="1.1" xmlns:xlink="http://www.w3.org/1999/xlink" viewBox="0 0 279.6145025 279.6145025">
  <!-- Generator: Adobe Illustrator 29.4.0, SVG Export Plug-In . SVG Version: 2.1.0 Build 152)  -->
  <defs>
    <style>
      .st0 {
        mask: url(#mask-1);
      }

      .st1, .st2 {
        fill: #fff;
      }

      .st3 {
        mask: url(#mask);
      }

      .st2 {
        display: none;
      }

      .st4 {
        fill: #01182b;
        font-family: Montserrat-Bold, Montserrat;
        font-size: 55px;
        font-weight: 700;
      }

      .st5 {
        fill: #2272af;
      }
    </style>
    <mask id="mask" x="594.2855122" y="-131.1927487" width="600" height="300" maskUnits="userSpaceOnUse">
      <g>
        <rect class="st1" x="594.2855122" y="-131.1927487" width="600" height="300"/>
        <path d="M894.2923481,38.8912356c-8.6137695,0-16.8647461-3.6640625-22.6376953-10.0527344l-12.5498047-13.8911133c-5.4614258-6.0449219-8.2416992-13.8549805-7.8295898-21.9912109.4125977-8.1362305,3.96875-15.625,10.0141602-21.0869141,5.6166992-5.0742188,12.8764648-7.8686523,20.4423828-7.8686523,5.3027344,0,10.4682617,1.3886719,15.0019531,3.9472656l73.78125-57.034668c5.3144531-4.1079102,11.9345703-6.3696289,18.6425781-6.3696289,9.5224609,0,18.3222656,4.3178711,24.1416016,11.847168,10.2861328,13.3061523,7.8291016,32.4985352-5.4765625,42.7841797l-94.8837891,73.3461914c-5.3125,4.1074219-11.9345703,6.3701172-18.6464844,6.3701172Z"/>
      </g>
    </mask>
    <mask id="mask-1" x="-211.0150479" y="-51.4359808" width="695.9840899" height="347.992045" maskUnits="userSpaceOnUse">
      <g>
        <rect class="st1" x="-211.0150479" y="-51.4359808" width="695.9840899" height="347.992045"/>
        <path d="M136.9849266,145.8569309c-9.9917442,0-19.5626583-4.2502153-26.2591263-11.6609053l-14.5574407-16.1133231c-6.3351091-7.0119491-9.5601526-16.07141-9.0821166-25.5092216.4786023-9.4378116,4.6036448-18.1245857,11.6161602-24.4602612,6.5152222-5.8859592,14.9363578-9.1274281,23.712622-9.1274281,6.1510313,0,12.142906,1.6108226,17.4018678,4.5787235L225.4011867-2.5941872c6.1646247-4.7650669,13.8437851-7.3886006,21.6248963-7.3886006,11.0458022,0,21.2533423,5.008616,28.0036177,13.7424007,11.9316413,15.4347839,9.0815502,37.697439-6.3526673,49.6285139l-110.0626793,85.0796371c-6.1623591,4.7645005-13.8437851,7.389167-21.6294274,7.389167Z"/>
      </g>
    </mask>
  </defs>
  <g>
    <rect class="st1" x="594.2855122" y="-110.1927487" width="600" height="300"/>
    <g>
      <g class="st3">
        <path class="st5" d="M939.2855122,45.3907016h-90V-44.6092984h90V45.3907016ZM819.2855122-44.4381905V45.2195936c0,16.6630428,13.5080651,30.1711079,30.1711079,30.1711079h89.6577841c16.6630428,0,30.1711079-13.5080651,30.1711079-30.1711079V-44.4381905c0-16.6630428-13.5080651-30.1711079-30.1711079-30.1711079h-89.6577841c-16.6630428,0-30.1711079,13.5080651-30.1711079,30.1711079Z"/>
      </g>
      <path class="st5" d="M882.7846625,18.7818374l-12.5496017-13.8901629c-5.7387751-6.3517968-5.2418499-16.153135,1.1099157-21.8919447l.0001693-.000153c6.3517822-5.7388247,16.1531535-5.2419331,21.8919893,1.1098391l2.9263068,3.238851,83.5258653-64.5671765c6.772757-5.2354776,16.5073632-3.9892158,21.7427731,2.7835934l.000019.0000245c5.2353371,6.7727151,3.9890949,16.5071563-2.7835696,21.7425589l-94.8832775,73.3466364c-6.4083958,4.9538158-15.5504915,4.1380805-20.9805896-1.8720662Z"/>
    </g>
    <text class="st4" transform="translate(749.5214369 144.7633126)"><tspan x="0" y="0">Tasks due</tspan></text>
  </g>
  <g>
    <rect class="st2" width="279.6145025" height="279.6145025" rx="30.2202948" ry="30.2202948"/>
    <g>
      <g class="st0">
        <path class="st1" d="M189.1758038,153.3961391h-104.3976135V48.9985256h104.3976135v104.3976135ZM49.9789859,49.197007v104.0006508c0,19.3286882,15.6689977,34.9976858,34.9976858,34.9976858h104.0006508c19.3286882,0,34.9976858-15.6689977,34.9976858-34.9976858V49.197007c0-19.3286882-15.6689977-34.9976858-34.9976858-34.9976858h-104.0006508c-19.3286882,0-34.9976858,15.6689977-34.9976858,34.9976858Z"/>
      </g>
      <path class="st1" d="M123.6363292,122.5305618l-14.5572044-16.1122196c-6.6568272-7.3679162-6.0804071-18.737209,1.2874728-25.3940763l.0001955-.0001766c7.3678992-6.6568847,18.7372304-6.0805037,25.394128,1.2873839l3.3944378,3.7569808L236.0431473,11.1722417c7.8562186-6.0730152,19.1481038-4.6273849,25.2210408,3.2288942l.000022.0000284c6.0728524,7.8561696,4.6272448,19.1478632-3.2288663,25.2207913l-110.062086,85.0801534c-7.4335695,5.7462952-18.0381585,4.8000638-24.3369286-2.1715472Z"/>
    </g>
    <g>
      <path class="st1" d="M30.1578995,217.2899536H9.3955289v-12.2362029h56.5401785v12.2362029h-20.7623706v52.6466168h-15.0154373v-52.6466168Z"/>
      <path class="st1" d="M107.7822374,241.4808971v28.4556733h-13.5332338v-6.2102762c-2.6878826,4.5412542-7.8784753,6.9526125-15.2006098,6.9526125-11.6790392,0-18.6308287-6.4884466-18.6308287-15.1084351,0-8.805984,6.2102762-14.9240855,21.4108861-14.9240855h11.4938667c0-6.2102762-3.7075662-9.8248446-11.4938667-9.8248446-5.2827674,0-10.7515304,1.7611968-14.3660988,4.635075l-5.1905927-10.103015c5.468763-3.8927387,13.5324108-6.0259267,21.5038838-6.0259267,15.2006098,0,24.0065939,7.0447872,24.0065939,22.1532223ZM93.3223178,254.1796199v-5.0975949h-9.9178424c-6.7657939,0-8.8981588,2.5018871-8.8981588,5.8382851,0,3.6162144,3.0590507,6.0259267,8.1566456,6.0259267,4.8202475,0,8.9911566-2.2253627,10.6593556-6.7666169Z"/>
      <path class="st1" d="M114.7677694,265.3014954l4.8194245-10.3811853c4.4490794,2.8738782,11.2156963,4.8210705,17.3321518,4.8210705,6.6744421,0,9.1763292-1.7611968,9.1763292-4.5429002,0-8.1558226-30.1230494.1859956-30.1230494-19.741864,0-9.4544995,8.5269907-16.1289416,23.0782621-16.1289416,6.8604377,0,14.4599196,1.5768472,19.1871694,4.3569046l-4.8194245,10.2890105c-4.9132453-2.7817034-9.8248446-3.7083892-14.3677448-3.7083892-6.4868006,0-9.268504,2.0393671-9.268504,4.635075,0,8.5278137,30.1246953.2781703,30.1246953,19.9278596,0,9.268504-8.6199885,15.8507713-23.544074,15.8507713-8.4339929,0-16.9609837-2.3175375-21.5952356-5.3774112Z"/>
      <path class="st1" d="M188.9799942,250.3790559l-6.9526125,6.8587917v12.6987228h-14.4582736v-68.7755584h14.4582736v38.9290334l21.1343617-20.0200344h17.239977l-20.7623706,21.1327157,22.6157422,28.7338436h-17.5181473l-15.7569505-19.5575145Z"/>
      <path class="st1" d="M223.9767853,265.3014954l4.8194245-10.3811853c4.4507254,2.8738782,11.2156963,4.8210705,17.3337978,4.8210705,6.6727961,0,9.1763292-1.7611968,9.1763292-4.5429002,0-8.1558226-30.1246953.1859956-30.1246953-19.741864,0-9.4544995,8.5278137-16.1289416,23.0799081-16.1289416,6.8587917,0,14.4599196,1.5768472,19.1871694,4.3569046l-4.8194245,10.2890105c-4.9132453-2.7817034-9.8264906-3.7083892-14.3677448-3.7083892-6.4884466,0-9.268504,2.0393671-9.268504,4.635075,0,8.5278137,30.1230494.2781703,30.1230494,19.9278596,0,9.268504-8.6199885,15.8507713-23.542428,15.8507713-8.4339929,0-16.9618067-2.3175375-21.5968816-5.3774112Z"/>
    </g>
  </g>
</svg>